<svg width="1144" height="740" viewBox="0 0 1144 740" fill="none" xmlns="http://www.w3.org/2000/svg">
<rect y="1.90936" width="1144" height="738.091" rx="20" fill="#222222"/>
<path d="M0 20.7578C0 9.71212 8.9543 0.757812 20 0.757812H1124C1135.05 0.757812 1144 9.71212 1144 20.7578V52.5739H0V20.7578Z" fill="#2C2C2C"/>
<path d="M1081.23 25.4239L1086.18 30.3739C1086.28 30.4662 1086.36 30.5765 1086.41 30.6985C1086.46 30.8205 1086.49 30.9518 1086.49 31.0845C1086.49 31.2173 1086.47 31.349 1086.42 31.4719C1086.37 31.5948 1086.29 31.7064 1086.2 31.8003C1086.1 31.8942 1085.99 31.9685 1085.87 32.0188C1085.75 32.069 1085.61 32.0944 1085.48 32.0932C1085.35 32.092 1085.22 32.0645 1085.1 32.012C1084.97 31.9596 1084.86 31.8835 1084.77 31.7879L1079.11 26.1309C1078.93 25.9434 1078.82 25.6891 1078.82 25.4239C1078.82 25.1588 1078.93 24.9045 1079.11 24.7169L1084.77 19.0599C1084.96 18.8778 1085.21 18.777 1085.47 18.7793C1085.74 18.7816 1085.99 18.8867 1086.17 19.0721C1086.36 19.2575 1086.46 19.5083 1086.47 19.7705C1086.47 20.0327 1086.37 20.2853 1086.18 20.4739L1081.23 25.4239Z" fill="#94A3B8"/>
<path d="M1112.79 25.4949L1107.84 20.5449C1107.66 20.3563 1107.56 20.1037 1107.56 19.8415C1107.56 19.5793 1107.67 19.3285 1107.85 19.1431C1108.04 18.9577 1108.29 18.8525 1108.55 18.8503C1108.81 18.848 1109.07 18.9488 1109.26 19.1309L1114.91 24.7879C1115.1 24.9755 1115.21 25.2298 1115.21 25.4949C1115.21 25.7601 1115.1 26.0144 1114.91 26.2019L1109.26 31.8589C1109.07 32.0411 1108.81 32.1419 1108.55 32.1396C1108.29 32.1373 1108.04 32.0322 1107.85 31.8467C1107.67 31.6613 1107.56 31.4105 1107.56 31.1483C1107.56 30.8861 1107.66 30.6335 1107.84 30.4449L1112.79 25.4949Z" fill="#475569"/>
<g clip-path="url(#clip0_14_43)">
<path d="M34.9884 30.678C32.6872 30.678 30.8218 28.8126 30.8218 26.5113C30.8218 24.2101 32.6872 22.3447 34.9884 22.3447C37.2897 22.3447 39.1551 24.2101 39.1551 26.5113C39.1551 28.8126 37.2897 30.678 34.9884 30.678Z" fill="#E11D48"/>
</g>
<g clip-path="url(#clip1_14_43)">
<path d="M49.9884 30.678C47.6872 30.678 45.8218 28.8126 45.8218 26.5113C45.8218 24.2101 47.6872 22.3447 49.9884 22.3447C52.2897 22.3447 54.1551 24.2101 54.1551 26.5113C54.1551 28.8126 52.2897 30.678 49.9884 30.678Z" fill="#FBBF24"/>
</g>
<g clip-path="url(#clip2_14_43)">
<path d="M64.9884 30.678C62.6872 30.678 60.8218 28.8126 60.8218 26.5113C60.8218 24.2101 62.6872 22.3447 64.9884 22.3447C67.2897 22.3447 69.1551 24.2101 69.1551 26.5113C69.1551 28.8126 67.2897 30.678 64.9884 30.678Z" fill="#22C55E"/>
</g>
<path d="M509.696 33H508.52C508.315 33 508.212 32.902 508.212 32.706V25.692C508.212 25.5893 508.161 25.538 508.058 25.538H506.462C506.266 25.538 506.168 25.44 506.168 25.244V24.292C506.168 24.096 506.266 23.998 506.462 23.998H511.754C511.95 23.998 512.048 24.096 512.048 24.292V25.244C512.048 25.44 511.95 25.538 511.754 25.538H510.158C510.046 25.538 509.99 25.5893 509.99 25.692V32.706C509.99 32.902 509.892 33 509.696 33ZM517.681 33H514.587C513.85 33 513.28 32.804 512.879 32.412C512.478 32.02 512.277 31.4553 512.277 30.718V28.142C512.277 27.4047 512.478 26.84 512.879 26.448C513.28 26.056 513.85 25.86 514.587 25.86H515.693C516.43 25.86 517 26.056 517.401 26.448C517.802 26.84 518.003 27.4047 518.003 28.142V29.92C518.003 30.116 517.905 30.214 517.709 30.214H514.195C514.083 30.214 514.027 30.2653 514.027 30.368V30.676C514.027 30.9653 514.088 31.1753 514.209 31.306C514.34 31.4273 514.554 31.488 514.853 31.488H517.681C517.877 31.488 517.975 31.5907 517.975 31.796V32.72C517.975 32.8227 517.952 32.8973 517.905 32.944C517.868 32.9813 517.793 33 517.681 33ZM514.195 29.024H516.099C516.202 29.024 516.253 28.9727 516.253 28.87V28.198C516.253 27.8993 516.192 27.6893 516.071 27.568C515.95 27.4467 515.74 27.386 515.441 27.386H514.853C514.554 27.386 514.344 27.4467 514.223 27.568C514.102 27.6893 514.041 27.8993 514.041 28.198V28.87C514.041 28.9727 514.092 29.024 514.195 29.024ZM520.259 33H519.069C518.873 33 518.775 32.902 518.775 32.706V26.154C518.775 25.958 518.873 25.86 519.069 25.86H520.259C520.455 25.86 520.553 25.958 520.553 26.154V26.616H520.609C520.814 26.112 521.272 25.86 521.981 25.86H522.429C523.894 25.86 524.627 26.6207 524.627 28.142V32.706C524.627 32.902 524.524 33 524.319 33H523.143C522.947 33 522.849 32.902 522.849 32.706V28.226C522.849 27.9273 522.784 27.7173 522.653 27.596C522.532 27.4653 522.322 27.4 522.023 27.4H521.519C520.875 27.4 520.553 27.7547 520.553 28.464V32.706C520.553 32.902 520.455 33 520.259 33ZM525.697 27.4H525.137C525.025 27.4 524.946 27.3813 524.899 27.344C524.862 27.3067 524.843 27.232 524.843 27.12V26.154C524.843 25.958 524.941 25.86 525.137 25.86H525.697C525.8 25.86 525.851 25.8087 525.851 25.706V24.376C525.851 24.18 525.954 24.082 526.159 24.082H527.335C527.531 24.082 527.629 24.18 527.629 24.376V25.706C527.629 25.8087 527.685 25.86 527.797 25.86H528.889C529.085 25.86 529.183 25.958 529.183 26.154V27.12C529.183 27.2227 529.16 27.2973 529.113 27.344C529.076 27.3813 529.001 27.4 528.889 27.4H527.797C527.685 27.4 527.629 27.4513 527.629 27.554V30.648C527.629 30.9373 527.694 31.1473 527.825 31.278C527.956 31.3993 528.17 31.46 528.469 31.46H529.029C529.225 31.46 529.323 31.558 529.323 31.754V32.72C529.323 32.8227 529.3 32.8973 529.253 32.944C529.216 32.9813 529.141 33 529.029 33H528.175C527.438 33 526.864 32.804 526.453 32.412C526.052 32.02 525.851 31.46 525.851 30.732V27.554C525.851 27.4513 525.8 27.4 525.697 27.4ZM532.425 33H532.089C531.351 33 530.782 32.804 530.381 32.412C529.979 32.02 529.779 31.4553 529.779 30.718V28.142C529.779 27.4047 529.979 26.84 530.381 26.448C530.782 26.056 531.351 25.86 532.089 25.86H535.323C535.528 25.86 535.631 25.958 535.631 26.154V32.706C535.631 32.902 535.528 33 535.323 33H534.147C533.951 33 533.853 32.902 533.853 32.706V32.244H533.797C533.694 32.496 533.512 32.6873 533.251 32.818C532.989 32.9393 532.714 33 532.425 33ZM533.853 30.396V27.554C533.853 27.4513 533.797 27.4 533.685 27.4H532.369C532.07 27.4 531.86 27.4653 531.739 27.596C531.617 27.7173 531.557 27.9273 531.557 28.226V30.634C531.557 30.9327 531.617 31.1473 531.739 31.278C531.86 31.3993 532.07 31.46 532.369 31.46H532.887C533.531 31.46 533.853 31.1053 533.853 30.396ZM541.155 31.754V32.72C541.155 32.8227 541.131 32.8973 541.085 32.944C541.047 32.9813 540.973 33 540.861 33H538.775C538.037 33 537.468 32.804 537.067 32.412C536.665 32.02 536.465 31.4553 536.465 30.718V28.142C536.465 27.4047 536.665 26.84 537.067 26.448C537.468 26.056 538.037 25.86 538.775 25.86H540.861C541.057 25.86 541.155 25.958 541.155 26.154V27.12C541.155 27.2227 541.131 27.2973 541.085 27.344C541.047 27.3813 540.973 27.4 540.861 27.4H539.055C538.765 27.4 538.555 27.4653 538.425 27.596C538.303 27.7173 538.243 27.9273 538.243 28.226V30.634C538.243 30.9327 538.303 31.1473 538.425 31.278C538.555 31.3993 538.765 31.46 539.055 31.46H540.861C541.057 31.46 541.155 31.558 541.155 31.754ZM544.377 33H543.915C543.196 33 542.65 32.804 542.277 32.412C541.913 32.02 541.731 31.4553 541.731 30.718V26.154C541.731 25.958 541.829 25.86 542.025 25.86H543.215C543.411 25.86 543.509 25.958 543.509 26.154V30.634C543.509 30.9327 543.569 31.1473 543.691 31.278C543.821 31.3993 544.031 31.46 544.321 31.46H544.839C545.483 31.46 545.805 31.1053 545.805 30.396V26.154C545.805 25.958 545.903 25.86 546.099 25.86H547.275C547.48 25.86 547.583 25.958 547.583 26.154V32.706C547.583 32.902 547.48 33 547.275 33H546.099C545.903 33 545.805 32.902 545.805 32.706V32.244H545.749C545.646 32.496 545.464 32.6873 545.203 32.818C544.941 32.9393 544.666 33 544.377 33ZM550.123 33H548.933C548.737 33 548.639 32.902 548.639 32.706V23.452C548.639 23.256 548.737 23.158 548.933 23.158H550.123C550.319 23.158 550.417 23.256 550.417 23.452V32.706C550.417 32.902 550.319 33 550.123 33ZM554.884 33H553.638C552.9 33 552.331 32.804 551.93 32.412C551.528 32.02 551.328 31.4553 551.328 30.718V28.142C551.328 27.4047 551.528 26.84 551.93 26.448C552.331 26.056 552.9 25.86 553.638 25.86H554.884C555.612 25.86 556.176 26.0607 556.578 26.462C556.988 26.854 557.194 27.414 557.194 28.142V30.718C557.194 31.446 556.988 32.0107 556.578 32.412C556.176 32.804 555.612 33 554.884 33ZM553.904 31.474H554.618C554.916 31.474 555.126 31.4133 555.248 31.292C555.378 31.1707 555.444 30.9607 555.444 30.662V28.198C555.444 27.8993 555.378 27.6893 555.248 27.568C555.126 27.4467 554.916 27.386 554.618 27.386H553.904C553.605 27.386 553.395 27.4467 553.274 27.568C553.152 27.6893 553.092 27.8993 553.092 28.198V30.662C553.092 30.9607 553.152 31.1707 553.274 31.292C553.395 31.4133 553.605 31.474 553.904 31.474ZM560.733 33H558.073C557.886 33 557.793 32.902 557.793 32.706V31.81C557.793 31.7073 557.811 31.6373 557.849 31.6C557.886 31.5533 557.961 31.53 558.073 31.53H560.411C560.868 31.53 561.097 31.39 561.097 31.11V31.04C561.097 30.816 560.905 30.6013 560.523 30.396L559.137 29.626C558.661 29.3833 558.311 29.122 558.087 28.842C557.863 28.562 557.751 28.2027 557.751 27.764C557.751 27.1107 557.923 26.63 558.269 26.322C558.614 26.014 559.155 25.86 559.893 25.86H562.231C562.417 25.86 562.511 25.958 562.511 26.154V27.064C562.511 27.1667 562.492 27.2413 562.455 27.288C562.417 27.3253 562.343 27.344 562.231 27.344H560.285C559.827 27.344 559.599 27.4607 559.599 27.694V27.764C559.599 27.9693 559.799 28.1793 560.201 28.394L561.615 29.234C562.1 29.4953 562.441 29.766 562.637 30.046C562.833 30.3167 562.931 30.676 562.931 31.124C562.931 32.3747 562.198 33 560.733 33ZM566.535 33H565.359C565.154 33 565.051 32.902 565.051 32.706V25.692C565.051 25.5893 565 25.538 564.897 25.538H563.301C563.105 25.538 563.007 25.44 563.007 25.244V24.292C563.007 24.096 563.105 23.998 563.301 23.998H568.593C568.789 23.998 568.887 24.096 568.887 24.292V25.244C568.887 25.44 568.789 25.538 568.593 25.538H566.997C566.885 25.538 566.829 25.5893 566.829 25.692V32.706C566.829 32.902 566.731 33 566.535 33ZM574.52 33H571.426C570.689 33 570.12 32.804 569.718 32.412C569.317 32.02 569.116 31.4553 569.116 30.718V28.142C569.116 27.4047 569.317 26.84 569.718 26.448C570.12 26.056 570.689 25.86 571.426 25.86H572.532C573.27 25.86 573.839 26.056 574.24 26.448C574.642 26.84 574.842 27.4047 574.842 28.142V29.92C574.842 30.116 574.744 30.214 574.548 30.214H571.034C570.922 30.214 570.866 30.2653 570.866 30.368V30.676C570.866 30.9653 570.927 31.1753 571.048 31.306C571.179 31.4273 571.394 31.488 571.692 31.488H574.52C574.716 31.488 574.814 31.5907 574.814 31.796V32.72C574.814 32.8227 574.791 32.8973 574.744 32.944C574.707 32.9813 574.632 33 574.52 33ZM571.034 29.024H572.938C573.041 29.024 573.092 28.9727 573.092 28.87V28.198C573.092 27.8993 573.032 27.6893 572.91 27.568C572.789 27.4467 572.579 27.386 572.28 27.386H571.692C571.394 27.386 571.184 27.4467 571.062 27.568C570.941 27.6893 570.88 27.8993 570.88 28.198V28.87C570.88 28.9727 570.932 29.024 571.034 29.024ZM580.164 31.754V32.72C580.164 32.8227 580.141 32.8973 580.094 32.944C580.057 32.9813 579.982 33 579.87 33H577.784C577.047 33 576.478 32.804 576.076 32.412C575.675 32.02 575.474 31.4553 575.474 30.718V28.142C575.474 27.4047 575.675 26.84 576.076 26.448C576.478 26.056 577.047 25.86 577.784 25.86H579.87C580.066 25.86 580.164 25.958 580.164 26.154V27.12C580.164 27.2227 580.141 27.2973 580.094 27.344C580.057 27.3813 579.982 27.4 579.87 27.4H578.064C577.775 27.4 577.565 27.4653 577.434 27.596C577.313 27.7173 577.252 27.9273 577.252 28.226V30.634C577.252 30.9327 577.313 31.1473 577.434 31.278C577.565 31.3993 577.775 31.46 578.064 31.46H579.87C580.066 31.46 580.164 31.558 580.164 31.754ZM582.294 33H581.104C580.908 33 580.81 32.902 580.81 32.706V23.452C580.81 23.256 580.908 23.158 581.104 23.158H582.294C582.49 23.158 582.588 23.256 582.588 23.452V26.616H582.644C582.85 26.112 583.307 25.86 584.016 25.86H584.464C585.93 25.86 586.662 26.6207 586.662 28.142V32.706C586.662 32.902 586.56 33 586.354 33H585.178C584.982 33 584.884 32.902 584.884 32.706V28.226C584.884 27.9273 584.819 27.7173 584.688 27.596C584.567 27.4653 584.357 27.4 584.058 27.4H583.554C582.91 27.4 582.588 27.7547 582.588 28.464V32.706C582.588 32.902 582.49 33 582.294 33ZM589.132 30.984V32.706C589.132 32.902 589.044 33 588.866 33H587.62C587.434 33 587.34 32.902 587.34 32.706V30.998C587.34 30.8113 587.434 30.718 587.62 30.718H588.866C589.044 30.718 589.132 30.8067 589.132 30.984ZM594.426 31.754V32.72C594.426 32.8227 594.403 32.8973 594.356 32.944C594.319 32.9813 594.244 33 594.132 33H592.046C591.309 33 590.739 32.804 590.338 32.412C589.937 32.02 589.736 31.4553 589.736 30.718V28.142C589.736 27.4047 589.937 26.84 590.338 26.448C590.739 26.056 591.309 25.86 592.046 25.86H594.132C594.328 25.86 594.426 25.958 594.426 26.154V27.12C594.426 27.2227 594.403 27.2973 594.356 27.344C594.319 27.3813 594.244 27.4 594.132 27.4H592.326C592.037 27.4 591.827 27.4653 591.696 27.596C591.575 27.7173 591.514 27.9273 591.514 28.226V30.634C591.514 30.9327 591.575 31.1473 591.696 31.278C591.827 31.3993 592.037 31.46 592.326 31.46H594.132C594.328 31.46 594.426 31.558 594.426 31.754ZM598.488 33H597.242C596.504 33 595.935 32.804 595.534 32.412C595.132 32.02 594.932 31.4553 594.932 30.718V28.142C594.932 27.4047 595.132 26.84 595.534 26.448C595.935 26.056 596.504 25.86 597.242 25.86H598.488C599.216 25.86 599.78 26.0607 600.182 26.462C600.592 26.854 600.798 27.414 600.798 28.142V30.718C600.798 31.446 600.592 32.0107 600.182 32.412C599.78 32.804 599.216 33 598.488 33ZM597.508 31.474H598.222C598.52 31.474 598.73 31.4133 598.852 31.292C598.982 31.1707 599.048 30.9607 599.048 30.662V28.198C599.048 27.8993 598.982 27.6893 598.852 27.568C598.73 27.4467 598.52 27.386 598.222 27.386H597.508C597.209 27.386 596.999 27.4467 596.878 27.568C596.756 27.6893 596.696 27.8993 596.696 28.198V30.662C596.696 30.9607 596.756 31.1707 596.878 31.292C596.999 31.4133 597.209 31.474 597.508 31.474ZM603.119 33H601.929C601.733 33 601.635 32.902 601.635 32.706V26.154C601.635 25.958 601.733 25.86 601.929 25.86H603.119C603.315 25.86 603.413 25.958 603.413 26.154V26.616H603.469C603.581 26.392 603.767 26.21 604.029 26.07C604.299 25.93 604.607 25.86 604.953 25.86H605.345C606.157 25.86 606.74 26.1587 607.095 26.756C607.412 26.1587 607.958 25.86 608.733 25.86H609.139C609.857 25.86 610.399 26.056 610.763 26.448C611.136 26.84 611.323 27.4047 611.323 28.142V32.706C611.323 32.902 611.225 33 611.029 33H609.839C609.643 33 609.545 32.902 609.545 32.706V28.226C609.545 27.9273 609.484 27.7173 609.363 27.596C609.241 27.4653 609.031 27.4 608.733 27.4H608.383C607.739 27.4 607.417 27.7593 607.417 28.478V32.706C607.417 32.902 607.314 33 607.109 33H605.933C605.737 33 605.639 32.902 605.639 32.706V28.226C605.639 27.9273 605.573 27.7173 605.443 27.596C605.321 27.4653 605.111 27.4 604.813 27.4H604.379C603.735 27.4 603.413 27.7547 603.413 28.464V32.706C603.413 32.902 603.315 33 603.119 33Z" fill="white"/>
<defs>
<clipPath id="clip0_14_43">
<rect width="10" height="10" fill="white" transform="translate(29.9884 21.4843)"/>
</clipPath>
<clipPath id="clip1_14_43">
<rect width="10" height="10" fill="white" transform="translate(44.9884 21.4843)"/>
</clipPath>
<clipPath id="clip2_14_43">
<rect width="10" height="10" fill="white" transform="translate(59.9884 21.4843)"/>
</clipPath>
</defs>
</svg>
